<?xml version="1.0" encoding="UTF-8"?>
<svg version="1.1" xmlns="http://www.w3.org/2000/svg" width="1024" height="1024">
<path d="M0 0 C1.00384733 -0.00861565 2.00769466 -0.0172313 3.04196161 -0.02610803 C6.43359071 -0.05369256 9.82522184 -0.0738283 13.21690369 -0.09381104 C15.63753973 -0.1115222 18.05817367 -0.12952412 20.47880554 -0.14779663 C42.5983495 -0.30695729 64.71854258 -0.39137248 86.83854008 -0.45779037 C89.79978549 -0.46683914 92.76103035 -0.47604873 95.72227478 -0.4854126 C96.45829264 -0.48773251 97.19431051 -0.49005242 97.95263194 -0.49244264 C109.86853588 -0.53119349 121.78379408 -0.61171005 133.69935221 -0.70854136 C145.93065894 -0.80711495 158.16163076 -0.86397231 170.39332575 -0.88136888 C177.26202057 -0.89227108 184.1295382 -0.92199533 190.99783516 -0.99932098 C197.46181216 -1.07207106 203.92441144 -1.08901769 210.38877869 -1.06820297 C212.76080642 -1.06963253 215.13290928 -1.08990377 217.50459099 -1.13044357 C235.44433634 -1.4213304 235.44433634 -1.4213304 240.68505669 2.58731842 C242.76320509 5.39342012 244.17801067 7.99842487 245.5565033 11.1942749 C246.43486596 12.54829909 247.33617301 13.8883419 248.27915955 15.19818115 C249.0614061 16.38286447 249.84138964 17.56904545 250.6190033 18.7567749 C254.03200352 23.9356203 257.52417263 29.03459106 261.1815033 34.0458374 C262.65445795 36.34732905 263.62157771 38.63221921 264.5565033 41.1942749 C265.2165033 41.1942749 265.8765033 41.1942749 266.5565033 41.1942749 C267.95870441 43.16660175 269.23482984 45.13248806 270.4940033 47.1942749 C273.89978245 52.63273845 277.40599305 57.9792678 281.0565033 63.2567749 C281.75211365 64.26369385 281.75211365 64.26369385 282.46177673 65.29095459 C283.82453479 67.26023058 285.18989576 69.22766878 286.5565033 71.1942749 C291.65808332 78.53724449 296.71017804 85.90419368 301.65415955 93.35443115 C304.5535815 97.68272635 307.55440843 101.9369276 310.5565033 106.1942749 C315.36741084 113.02848855 320.10812768 119.90728895 324.8065033 126.8192749 C329.20936325 133.28719307 333.61739751 139.75117219 338.0565033 146.1942749 C343.12176416 153.54620513 348.14887398 160.92394824 353.16783142 168.30755615 C356.10438042 172.6220974 359.05774993 176.9226875 362.0565033 181.1942749 C365.68941288 186.36918892 369.25215343 191.59020313 372.8065033 196.8192749 C377.39422345 203.55989166 381.99266027 210.29260883 386.6190033 217.0067749 C387.89147234 218.85772314 389.16326602 220.70913146 390.43443298 222.56097412 C391.47579232 224.07679091 392.51993779 225.59069261 393.5643158 227.10443115 C394.11861267 227.91782959 394.67290955 228.73122803 395.2440033 229.5692749 C395.70162048 230.23700928 396.15923767 230.90474365 396.63072205 231.5927124 C397.5565033 233.1942749 397.5565033 233.1942749 397.5565033 235.1942749 C398.2165033 235.1942749 398.8765033 235.1942749 399.5565033 235.1942749 C401.2127533 237.42474365 401.2127533 237.42474365 403.0565033 240.3817749 C403.6649408 241.34470459 404.2733783 242.30763428 404.9002533 243.29974365 C406.38270733 245.89054186 407.53340336 248.39609659 408.5565033 251.1942749 C409.2165033 251.1942749 409.8765033 251.1942749 410.5565033 251.1942749 C411.9315033 253.1083374 411.9315033 253.1083374 413.5565033 255.8192749 C416.91254047 261.27549602 420.54870304 266.45105873 424.35533142 271.59710693 C427.5565033 275.98320871 427.5565033 275.98320871 427.5565033 278.1942749 C428.2165033 278.1942749 428.8765033 278.1942749 429.5565033 278.1942749 C430.0205658 277.2661499 430.0205658 277.2661499 430.4940033 276.3192749 C431.1815033 274.9442749 431.8690033 273.5692749 432.5565033 272.1942749 C433.2165033 272.1942749 433.8765033 272.1942749 434.5565033 272.1942749 C434.80271423 271.62837646 435.04892517 271.06247803 435.30259705 270.47943115 C436.77186553 267.80179232 438.53402765 265.86383878 440.6190033 263.6317749 C443.88668802 260.07130562 447.02129523 256.45494571 450.0565033 252.6942749 C453.81681657 248.0402252 457.75214375 243.58963031 461.8065033 239.19036865 C463.60432308 237.30976816 463.60432308 237.30976816 464.5565033 235.1942749 C465.2165033 235.1942749 465.8765033 235.1942749 466.5565033 235.1942749 C466.80271423 234.62837646 467.04892517 234.06247803 467.30259705 233.47943115 C468.77186553 230.80179232 470.53402765 228.86383878 472.6190033 226.6317749 C475.88668802 223.07130562 479.02129523 219.45494571 482.0565033 215.6942749 C485.81681657 211.0402252 489.75214375 206.58963031 493.8065033 202.19036865 C495.60432308 200.30976816 495.60432308 200.30976816 496.5565033 198.1942749 C497.2165033 198.1942749 497.8765033 198.1942749 498.5565033 198.1942749 C498.82962341 197.60275635 499.10274353 197.01123779 499.38414001 196.40179443 C500.52141579 194.26034346 501.70930561 192.68020094 503.3143158 190.8739624 C504.12388733 189.95369263 504.12388733 189.95369263 504.94981384 189.01483154 C505.52127136 188.37279785 506.09272888 187.73076416 506.6815033 187.0692749 C511.33451013 181.79063207 515.81155703 176.4601035 520.06822205 170.85443115 C520.55935486 170.30657959 521.05048767 169.75872803 521.5565033 169.1942749 C522.2165033 169.1942749 522.8765033 169.1942749 523.5565033 169.1942749 C523.79755798 168.63353271 524.03861267 168.07279053 524.28697205 167.49505615 C525.81828559 164.71984483 527.70246635 162.69396139 529.8690033 160.3817749 C532.63008167 157.3854278 535.20198102 154.4386849 537.4940033 151.0692749 C538.1746283 150.1205249 538.8552533 149.1717749 539.5565033 148.1942749 C540.2165033 148.1942749 540.8765033 148.1942749 541.5565033 148.1942749 C541.79240173 147.63997803 542.02830017 147.08568115 542.27134705 146.5145874 C543.86914879 143.62980248 545.87501339 141.48255458 548.1190033 139.0692749 C551.19369516 135.87919981 551.19369516 135.87919981 553.5565033 132.1942749 C554.2165033 132.1942749 554.8765033 132.1942749 555.5565033 132.1942749 C555.8040033 131.64255615 556.0515033 131.0908374 556.3065033 130.5223999 C557.79884803 127.74290783 559.59322853 125.41280421 561.5565033 122.9442749 C562.2577533 122.05224365 562.9590033 121.1602124 563.6815033 120.2411499 C564.6096283 119.22794678 564.6096283 119.22794678 565.5565033 118.1942749 C566.2165033 118.1942749 566.8765033 118.1942749 567.5565033 118.1942749 C567.7936908 117.65286865 568.0308783 117.1114624 568.2752533 116.5536499 C569.89998086 113.56177353 571.90669099 111.08268091 574.0565033 108.4442749 C575.24759705 106.96700928 575.24759705 106.96700928 576.4627533 105.4598999 C577.49915955 104.33841553 577.49915955 104.33841553 578.5565033 103.1942749 C579.2165033 103.1942749 579.8765033 103.1942749 580.5565033 103.1942749 C580.8040033 102.64255615 581.0515033 102.0908374 581.3065033 101.5223999 C582.79884803 98.74290783 584.59322853 96.41280421 586.5565033 93.9442749 C587.2577533 93.05224365 587.9590033 92.1602124 588.6815033 91.2411499 C589.6096283 90.22794678 589.6096283 90.22794678 590.5565033 89.1942749 C591.2165033 89.1942749 591.8765033 89.1942749 592.5565033 89.1942749 C592.79755798 88.63353271 593.03861267 88.07279053 593.28697205 87.49505615 C594.81828559 84.71984483 596.70246635 82.69396139 598.8690033 80.3817749 C601.63008167 77.3854278 604.20198102 74.4386849 606.4940033 71.0692749 C607.1746283 70.1205249 607.8552533 69.1717749 608.5565033 68.1942749 C609.2165033 68.1942749 609.8765033 68.1942749 610.5565033 68.1942749 C610.5565033 67.5342749 610.5565033 66.8742749 610.5565033 66.1942749 C611.2165033 66.1942749 611.8765033 66.1942749 612.5565033 66.1942749 C612.8040033 65.64255615 613.0515033 65.0908374 613.3065033 64.5223999 C614.79884803 61.74290783 616.59322853 59.41280421 618.5565033 56.9442749 C619.2577533 56.05224365 619.9590033 55.1602124 620.6815033 54.2411499 C621.3002533 53.56568115 621.9190033 52.8902124 622.5565033 52.1942749 C623.2165033 52.1942749 623.8765033 52.1942749 624.5565033 52.1942749 C624.79755798 51.63353271 625.03861267 51.07279053 625.28697205 50.49505615 C626.81828559 47.71984483 628.70246635 45.69396139 630.8690033 43.3817749 C633.63008167 40.3854278 636.20198102 37.4386849 638.4940033 34.0692749 C639.1746283 33.1205249 639.8552533 32.1717749 640.5565033 31.1942749 C641.2165033 31.1942749 641.8765033 31.1942749 642.5565033 31.1942749 C642.5565033 30.5342749 642.5565033 29.8742749 642.5565033 29.1942749 C643.2165033 29.1942749 643.8765033 29.1942749 644.5565033 29.1942749 C644.9258197 28.36282959 644.9258197 28.36282959 645.30259705 27.5145874 C649.59521261 19.57124271 656.7227343 12.7916805 662.8065033 6.19036865 C664.60432308 4.30976816 664.60432308 4.30976816 665.5565033 2.1942749 C666.2165033 2.1942749 666.8765033 2.1942749 667.5565033 2.1942749 C667.5565033 1.5342749 667.5565033 0.8742749 667.5565033 0.1942749 C689.6665033 0.1942749 711.7765033 0.1942749 734.5565033 0.1942749 C730.03726828 9.23274494 722.37453036 16.61223036 715.5252533 23.97943115 C713.52978541 26.03106611 713.52978541 26.03106611 712.5565033 28.1942749 C711.8965033 28.1942749 711.2365033 28.1942749 710.5565033 28.1942749 C710.3090033 28.74599365 710.0615033 29.2977124 709.8065033 29.8661499 C708.31415856 32.64564198 706.51977806 34.9757456 704.5565033 37.4442749 C703.8552533 38.33630615 703.1540033 39.2283374 702.4315033 40.1473999 C701.8127533 40.82286865 701.1940033 41.4983374 700.5565033 42.1942749 C699.8965033 42.1942749 699.2365033 42.1942749 698.5565033 42.1942749 C698.31544861 42.75501709 698.07439392 43.31575928 697.82603455 43.89349365 C696.294721 46.66870497 694.41054024 48.69458841 692.2440033 51.0067749 C689.48292493 54.00312201 686.91102558 56.9498649 684.6190033 60.3192749 C683.9383783 61.2680249 683.2577533 62.2167749 682.5565033 63.1942749 C681.8965033 63.1942749 681.2365033 63.1942749 680.5565033 63.1942749 C680.5565033 63.8542749 680.5565033 64.5142749 680.5565033 65.1942749 C679.8965033 65.1942749 679.2365033 65.1942749 678.5565033 65.1942749 C678.3090033 65.74599365 678.0615033 66.2977124 677.8065033 66.8661499 C676.31415856 69.64564198 674.51977806 71.9757456 672.5565033 74.4442749 C671.8552533 75.33630615 671.1540033 76.2283374 670.4315033 77.1473999 C669.5033783 78.16060303 669.5033783 78.16060303 668.5565033 79.1942749 C667.8965033 79.1942749 667.2365033 79.1942749 666.5565033 79.1942749 C666.2986908 79.75630615 666.0408783 80.3183374 665.7752533 80.8973999 C664.41480553 83.46132069 662.82861368 85.64653856 661.0565033 87.9442749 C660.4480658 88.74349365 659.8396283 89.5427124 659.2127533 90.3661499 C658.6661908 90.96943115 658.1196283 91.5727124 657.5565033 92.1942749 C656.8965033 92.1942749 656.2365033 92.1942749 655.5565033 92.1942749 C655.3296283 92.7305249 655.1027533 93.2667749 654.8690033 93.8192749 C653.1008024 97.01887652 651.01980127 99.48464713 648.5565033 102.1942749 C647.8965033 102.1942749 647.2365033 102.1942749 646.5565033 102.1942749 C646.31029236 102.74857178 646.06408142 103.30286865 645.81040955 103.8739624 C641.51779398 111.8173071 634.3902723 118.5968693 628.3065033 125.19818115 C626.50868351 127.07878165 626.50868351 127.07878165 625.5565033 129.1942749 C624.8965033 129.1942749 624.2365033 129.1942749 623.5565033 129.1942749 C623.31029236 129.76017334 623.06408142 130.32607178 622.81040955 130.90911865 C621.34114106 133.58675749 619.57897894 135.52471102 617.4940033 137.7567749 C614.22631857 141.31724418 611.09171136 144.9336041 608.0565033 148.6942749 C604.29619002 153.34832461 600.36086284 157.79891949 596.3065033 162.19818115 C594.50868351 164.07878165 594.50868351 164.07878165 593.5565033 166.1942749 C592.8965033 166.1942749 592.2365033 166.1942749 591.5565033 166.1942749 C591.28338318 166.78579346 591.01026306 167.37731201 590.72886658 167.98675537 C589.5915908 170.12820635 588.40370098 171.70834887 586.7986908 173.5145874 C585.98911926 174.43485718 585.98911926 174.43485718 585.16319275 175.37371826 C584.59173523 176.01575195 584.02027771 176.65778564 583.4315033 177.3192749 C578.77849646 182.59791774 574.30144956 187.9284463 570.04478455 193.53411865 C569.55365173 194.08197021 569.06251892 194.62982178 568.5565033 195.1942749 C567.8965033 195.1942749 567.2365033 195.1942749 566.5565033 195.1942749 C566.3090033 195.74599365 566.0615033 196.2977124 565.8065033 196.8661499 C564.31415856 199.64564198 562.51977806 201.9757456 560.5565033 204.4442749 C559.8552533 205.33630615 559.1540033 206.2283374 558.4315033 207.1473999 C557.8127533 207.82286865 557.1940033 208.4983374 556.5565033 209.1942749 C555.8965033 209.1942749 555.2365033 209.1942749 554.5565033 209.1942749 C554.20845642 210.02185303 554.20845642 210.02185303 553.8533783 210.8661499 C552.20829194 213.81937721 550.12487379 215.98539711 547.8065033 218.4442749 C544.12924862 222.40316902 540.77836551 226.38407361 537.7127533 230.83099365 C537.3311908 231.28087646 536.9496283 231.73075928 536.5565033 232.1942749 C535.8965033 232.1942749 535.2365033 232.1942749 534.5565033 232.1942749 C534.3090033 232.74599365 534.0615033 233.2977124 533.8065033 233.8661499 C532.31415856 236.64564198 530.51977806 238.9757456 528.5565033 241.4442749 C527.8552533 242.33630615 527.1540033 243.2283374 526.4315033 244.1473999 C525.8127533 244.82286865 525.1940033 245.4983374 524.5565033 246.1942749 C523.8965033 246.1942749 523.2365033 246.1942749 522.5565033 246.1942749 C522.20072205 247.00638428 522.20072205 247.00638428 521.8377533 247.8348999 C520.21302573 250.82677628 518.2063156 253.30586889 516.0565033 255.9442749 C515.2624408 256.92911865 514.4683783 257.9139624 513.6502533 258.9286499 C512.9593158 259.67630615 512.2683783 260.4239624 511.5565033 261.1942749 C510.8965033 261.1942749 510.2365033 261.1942749 509.5565033 261.1942749 C509.3090033 261.74599365 509.0615033 262.2977124 508.8065033 262.8661499 C507.31415856 265.64564198 505.51977806 267.9757456 503.5565033 270.4442749 C502.8552533 271.33630615 502.1540033 272.2283374 501.4315033 273.1473999 C500.8127533 273.82286865 500.1940033 274.4983374 499.5565033 275.1942749 C498.8965033 275.1942749 498.2365033 275.1942749 497.5565033 275.1942749 C497.31544861 275.75501709 497.07439392 276.31575928 496.82603455 276.89349365 C495.294721 279.66870497 493.41054024 281.69458841 491.2440033 284.0067749 C488.48292493 287.00312201 485.91102558 289.9498649 483.6190033 293.3192749 C482.9383783 294.2680249 482.2577533 295.2167749 481.5565033 296.1942749 C480.8965033 296.1942749 480.2365033 296.1942749 479.5565033 296.1942749 C479.5565033 296.8542749 479.5565033 297.5142749 479.5565033 298.1942749 C478.8965033 298.1942749 478.2365033 298.1942749 477.5565033 298.1942749 C477.3090033 298.74599365 477.0615033 299.2977124 476.8065033 299.8661499 C475.31415856 302.64564198 473.51977806 304.9757456 471.5565033 307.4442749 C470.8552533 308.33630615 470.1540033 309.2283374 469.4315033 310.1473999 C468.8127533 310.82286865 468.1940033 311.4983374 467.5565033 312.1942749 C466.8965033 312.1942749 466.2365033 312.1942749 465.5565033 312.1942749 C465.1852533 313.0295874 465.1852533 313.0295874 464.8065033 313.8817749 C463.34044315 316.59398617 461.52660859 318.83014855 459.5565033 321.1942749 C460.87594022 324.79807434 462.46818466 327.77756753 464.64634705 330.93255615 C465.26066589 331.82756836 465.87498474 332.72258057 466.50791931 333.64471436 C467.16332703 334.58919434 467.81873474 335.53367432 468.4940033 336.5067749 C469.16552429 337.48283691 469.83704529 338.45889893 470.52891541 339.46453857 C472.53389765 342.37738327 474.54488585 345.28601021 476.5565033 348.1942749 C479.85349975 352.98017584 483.14544809 357.76956378 486.43443298 362.56097412 C487.47579232 364.07679091 488.51993779 365.59069261 489.5643158 367.10443115 C490.11861267 367.91782959 490.67290955 368.73122803 491.2440033 369.5692749 C491.70162048 370.23700928 492.15923767 370.90474365 492.63072205 371.5927124 C493.5565033 373.1942749 493.5565033 373.1942749 493.5565033 375.1942749 C494.2165033 375.1942749 494.8765033 375.1942749 495.5565033 375.1942749 C497.0405732 377.29192157 498.40369358 379.38210004 499.7440033 381.5692749 C500.5614706 382.87232758 501.38048983 384.1744079 502.20103455 385.4755249 C502.60402771 386.11618896 503.00702087 386.75685303 503.42222595 387.41693115 C505.3911215 390.50207096 507.51027464 393.47528426 509.6268158 396.4598999 C512.04957971 399.89296618 514.42882848 403.35488793 516.8065033 406.8192749 C517.50682678 407.8394873 517.50682678 407.8394873 518.22129822 408.88031006 C519.18221055 410.28017382 520.14306601 411.68007662 521.10386658 413.08001709 C522.54282874 415.17437211 523.98471768 417.26667957 525.42759705 419.3583374 C528.1449291 423.2983987 530.85328169 427.244522 533.5565033 431.1942749 C533.97158142 431.79916748 534.38665955 432.40406006 534.8143158 433.02728271 C535.96267636 434.70444479 537.10355987 436.38671928 538.2440033 438.0692749 C538.88724548 439.01544678 539.53048767 439.96161865 540.19322205 440.9364624 C541.5565033 443.1942749 541.5565033 443.1942749 541.5565033 445.1942749 C542.2165033 445.1942749 542.8765033 445.1942749 543.5565033 445.1942749 C545.19317879 447.45725944 546.7021584 449.70694603 548.1815033 452.0692749 C548.60173767 452.72025146 549.02197205 453.37122803 549.4549408 454.04193115 C552.5565033 458.92588509 552.5565033 458.92588509 552.5565033 461.1942749 C553.2165033 461.1942749 553.8765033 461.1942749 554.5565033 461.1942749 C556.01719666 463.21820068 556.01719666 463.21820068 557.70884705 466.0145874 C561.31753844 471.84852974 565.17103313 477.46145183 569.1190033 483.0692749 C574.66653438 491.0030025 580.16211397 498.96799481 585.5565033 507.0067749 C586.16179871 507.90186768 586.76709412 508.79696045 587.39073181 509.71917725 C587.9404364 510.54240479 588.49014099 511.36563232 589.0565033 512.21380615 C589.5411908 512.93672852 590.0258783 513.65965088 590.5252533 514.40447998 C591.5565033 516.1942749 591.5565033 516.1942749 591.5565033 518.1942749 C592.2165033 518.1942749 592.8765033 518.1942749 593.5565033 518.1942749 C594.8455658 519.8739624 594.8455658 519.8739624 596.1815033 522.0692749 C596.62751892 522.78857178 597.07353455 523.50786865 597.5330658 524.2489624 C598.5565033 526.1942749 598.5565033 526.1942749 598.5565033 528.1942749 C599.2165033 528.1942749 599.8765033 528.1942749 600.5565033 528.1942749 C602.0405732 530.29192157 603.40369358 532.38210004 604.7440033 534.5692749 C605.5614706 535.87232758 606.38048983 537.1744079 607.20103455 538.4755249 C607.60402771 539.11618896 608.00702087 539.75685303 608.42222595 540.41693115 C610.3911215 543.50207096 612.51027464 546.47528426 614.6268158 549.4598999 C617.04957971 552.89296618 619.42882848 556.35488793 621.8065033 559.8192749 C622.27338562 560.4994165 622.74026794 561.17955811 623.22129822 561.88031006 C624.18221055 563.28017382 625.14306601 564.68007662 626.10386658 566.08001709 C627.54282874 568.17437211 628.98471768 570.26667957 630.42759705 572.3583374 C633.1449291 576.2983987 635.85328169 580.244522 638.5565033 584.1942749 C638.97158142 584.79916748 639.38665955 585.40406006 639.8143158 586.02728271 C640.96267636 587.70444479 642.10355987 589.38671928 643.2440033 591.0692749 C643.88724548 592.01544678 644.53048767 592.96161865 645.19322205 593.9364624 C646.5565033 596.1942749 646.5565033 596.1942749 646.5565033 598.1942749 C647.2165033 598.1942749 647.8765033 598.1942749 648.5565033 598.1942749 C650.2127533 600.42474365 650.2127533 600.42474365 652.0565033 603.3817749 C652.6649408 604.34470459 653.2733783 605.30763428 653.9002533 606.29974365 C655.38270733 608.89054186 656.53340336 611.39609659 657.5565033 614.1942749 C658.2165033 614.1942749 658.8765033 614.1942749 659.5565033 614.1942749 C660.89634705 616.0380249 660.89634705 616.0380249 662.4940033 618.6942749 C665.38441378 623.36157708 668.37352192 627.92766789 671.4940033 632.4442749 C671.94888123 633.1035498 672.40375916 633.76282471 672.87242126 634.44207764 C675.72789817 638.571279 678.59835732 642.68998147 681.4705658 646.80755615 C694.2329238 665.1044484 694.2329238 665.1044484 699.5565033 673.0067749 C699.97166199 673.61658203 700.38682068 674.22638916 700.81455994 674.85467529 C703.5565033 678.95830069 703.5565033 678.95830069 703.5565033 681.1942749 C704.2165033 681.1942749 704.8765033 681.1942749 705.5565033 681.1942749 C706.95870441 683.16660175 708.23482984 685.13248806 709.4940033 687.1942749 C712.89978245 692.63273845 716.40599305 697.9792678 720.0565033 703.2567749 C720.75211365 704.26369385 720.75211365 704.26369385 721.46177673 705.29095459 C722.82453479 707.26023058 724.18989576 709.22766878 725.5565033 711.1942749 C730.10344938 717.738931 734.64792449 724.28497266 739.1190033 730.8817749 C739.78029236 731.85501709 740.44158142 732.82825928 741.12290955 733.83099365 C742.5565033 736.1942749 742.5565033 736.1942749 742.5565033 738.1942749 C743.2165033 738.1942749 743.8765033 738.1942749 744.5565033 738.1942749 C746.03697205 740.2489624 746.03697205 740.2489624 747.7440033 743.0692749 C749.97712576 746.67697786 752.22862084 750.23210167 754.6815033 753.6942749 C758.31558401 758.84046736 761.91458394 764.00995547 765.4940033 769.1942749 C766.08648865 770.04441162 766.678974 770.89454834 767.28941345 771.77044678 C767.84032654 772.57031006 768.39123962 773.37017334 768.95884705 774.1942749 C769.45892273 774.9161499 769.95899841 775.6380249 770.47422791 776.3817749 C771.5565033 778.1942749 771.5565033 778.1942749 771.5565033 780.1942749 C740.18454996 780.62823125 708.81339406 780.96421746 677.43914955 781.16451616 C673.73062255 781.18827802 670.0221015 781.2128703 666.31358337 781.23797607 C665.57532095 781.24295997 664.83705852 781.24794387 664.0764245 781.2530788 C652.14060456 781.33563366 640.20653301 781.48536616 628.27174846 781.66017803 C616.01455043 781.83820754 603.75826435 781.9434627 591.49982661 781.9819563 C583.94164575 782.00796083 576.38840612 782.08988369 568.83174803 782.24468777 C563.02523643 782.35753891 557.22184998 782.36884145 551.41446114 782.34332085 C549.04109113 782.34852925 546.66752661 782.38608721 544.29527664 782.45917892 C526.87774222 782.96930638 526.87774222 782.96930638 521.36358047 778.36199784 C517.40660528 773.88448329 514.55584657 768.92564368 511.85377538 763.62175333 C509.80000633 759.77870442 507.27722992 756.29380388 504.7440033 752.7567749 C503.84424729 751.45519715 502.94674426 750.15205584 502.05259705 748.84661865 C501.63091248 748.23157471 501.20922791 747.61653076 500.77476501 746.98284912 C498.27988799 743.32002966 495.83873212 739.62141203 493.38853455 735.9286499 C490.51240106 731.63591336 487.53753822 727.41453912 484.5565033 723.1942749 C479.50612525 716.03635997 474.54936633 708.81633788 469.60801697 701.58294678 C466.45681692 696.97015702 463.29827655 692.36266244 460.12705994 687.76361084 C457.9313544 684.57760917 455.74289154 681.38667525 453.5565033 678.1942749 C453.14432556 677.59373291 452.73214783 676.99319092 452.30747986 676.37445068 C451.15615263 674.69291918 450.01236398 673.00623339 448.8690033 671.3192749 C447.90414001 669.90001709 447.90414001 669.90001709 446.91978455 668.4520874 C445.5565033 666.1942749 445.5565033 666.1942749 445.5565033 664.1942749 C444.8965033 664.1942749 444.2365033 664.1942749 443.5565033 664.1942749 C441.9198278 661.93129037 440.41084819 659.68160378 438.9315033 657.3192749 C438.51126892 656.66829834 438.09103455 656.01732178 437.6580658 655.34661865 C434.5565033 650.46266472 434.5565033 650.46266472 434.5565033 648.1942749 C433.8965033 648.1942749 433.2365033 648.1942749 432.5565033 648.1942749 C431.21665955 646.3505249 431.21665955 646.3505249 429.6190033 643.6942749 C426.72859075 639.0269694 423.7394515 634.46090966 420.6190033 629.9442749 C420.16920105 629.29225098 419.7193988 628.64022705 419.25596619 627.96844482 C416.31424073 623.71409673 413.35594223 619.4713606 410.39634705 615.22943115 C409.6789032 614.20043701 408.96145935 613.17144287 408.22227478 612.11126709 C406.80030858 610.07297128 405.37669529 608.03582334 403.95127869 605.99993896 C403.29506531 605.05989014 402.63885193 604.11984131 401.9627533 603.15130615 C401.37816345 602.31575195 400.79357361 601.48019775 400.19126892 600.61932373 C395.5565033 593.74400609 395.5565033 593.74400609 395.5565033 591.1942749 C394.8965033 591.1942749 394.2365033 591.1942749 393.5565033 591.1942749 C392.07603455 589.1395874 392.07603455 589.1395874 390.3690033 586.3192749 C388.13588084 582.71157195 385.88438575 579.15644814 383.4315033 575.6942749 C380.00486323 570.85395374 376.65112127 565.96642149 373.3065033 561.0692749 C369.5548567 555.57724059 365.79923528 550.08815157 362.02549744 544.61126709 C360.25091967 542.03487957 358.48016284 539.45588668 356.71080017 536.87591553 C355.65642813 535.33985067 354.59882144 533.8060074 353.5408783 532.2723999 C352.98915955 531.46286865 352.4374408 530.6533374 351.8690033 529.8192749 C351.41138611 529.15154053 350.95376892 528.48380615 350.48228455 527.7958374 C349.5565033 526.1942749 349.5565033 526.1942749 349.5565033 524.1942749 C348.8965033 524.1942749 348.2365033 524.1942749 347.5565033 524.1942749 C346.07243339 522.09662823 344.70931302 520.00644977 343.3690033 517.8192749 C342.55153599 516.51622223 341.73251676 515.2141419 340.91197205 513.9130249 C340.50897888 513.27236084 340.10598572 512.63169678 339.69078064 511.97161865 C337.73547271 508.90776981 335.63223844 505.95435326 333.52915955 502.9911499 C330.85966275 499.2062792 328.24016107 495.3877207 325.6190033 491.5692749 C325.1215863 490.84498291 324.62416931 490.12069092 324.11167908 489.37445068 C322.92625701 487.64797493 321.74132725 485.92116117 320.5565033 484.1942749 C316.93065945 485.85827321 315.27657206 487.56510459 312.9315033 490.8192749 C311.85295356 492.31228916 310.73733378 493.78076846 309.5565033 495.1942749 C308.8965033 495.1942749 308.2365033 495.1942749 307.5565033 495.1942749 C307.2677533 495.7923999 306.9790033 496.3905249 306.6815033 497.0067749 C305.5565033 499.1942749 305.5565033 499.1942749 303.5565033 502.1942749 C302.8965033 502.1942749 302.2365033 502.1942749 301.5565033 502.1942749 C301.0924408 503.1223999 301.0924408 503.1223999 300.6190033 504.0692749 C299.9315033 505.4442749 299.2440033 506.8192749 298.5565033 508.1942749 C297.8965033 508.1942749 297.2365033 508.1942749 296.5565033 508.1942749 C296.2161908 508.9986499 296.2161908 508.9986499 295.8690033 509.8192749 C294.1008024 513.01887652 292.01980127 515.48464713 289.5565033 518.1942749 C288.8965033 518.1942749 288.2365033 518.1942749 287.5565033 518.1942749 C287.18718689 519.02572021 287.18718689 519.02572021 286.81040955 519.8739624 C282.51779398 527.8173071 275.3902723 534.5968693 269.3065033 541.19818115 C267.50868351 543.07878165 267.50868351 543.07878165 266.5565033 545.1942749 C265.8965033 545.1942749 265.2365033 545.1942749 264.5565033 545.1942749 C264.18718689 546.04312256 264.18718689 546.04312256 263.81040955 546.90911865 C262.34114106 549.58675749 260.57897894 551.52471102 258.4940033 553.7567749 C255.22631857 557.31724418 252.09171136 560.9336041 249.0565033 564.6942749 C245.29619002 569.34832461 241.36086284 573.79891949 237.3065033 578.19818115 C235.50868351 580.07878165 235.50868351 580.07878165 234.5565033 582.1942749 C233.8965033 582.1942749 233.2365033 582.1942749 232.5565033 582.1942749 C232.28338318 582.78579346 232.01026306 583.37731201 231.72886658 583.98675537 C230.5915908 586.12820635 229.40370098 587.70834887 227.7986908 589.5145874 C227.25897644 590.12810059 226.71926208 590.74161377 226.16319275 591.37371826 C225.59173523 592.01575195 225.02027771 592.65778564 224.4315033 593.3192749 C219.77849646 598.59791774 215.30144956 603.9284463 211.04478455 609.53411865 C210.55365173 610.08197021 210.06251892 610.62982178 209.5565033 611.1942749 C208.8965033 611.1942749 208.2365033 611.1942749 207.5565033 611.1942749 C207.18718689 612.04312256 207.18718689 612.04312256 206.81040955 612.90911865 C205.34114106 615.58675749 203.57897894 617.52471102 201.4940033 619.7567749 C198.22631857 623.31724418 195.09171136 626.9336041 192.0565033 630.6942749 C188.29619002 635.34832461 184.36086284 639.79891949 180.3065033 644.19818115 C178.50868351 646.07878165 178.50868351 646.07878165 177.5565033 648.1942749 C176.8965033 648.1942749 176.2365033 648.1942749 175.5565033 648.1942749 C175.3090033 648.74599365 175.0615033 649.2977124 174.8065033 649.8661499 C173.31415856 652.64564198 171.51977806 654.9757456 169.5565033 657.4442749 C168.8552533 658.33630615 168.1540033 659.2283374 167.4315033 660.1473999 C166.8127533 660.82286865 166.1940033 661.4983374 165.5565033 662.1942749 C164.8965033 662.1942749 164.2365033 662.1942749 163.5565033 662.1942749 C163.1233783 663.0914624 163.1233783 663.0914624 162.6815033 664.0067749 C161.5565033 666.1942749 161.5565033 666.1942749 159.5565033 669.1942749 C158.8965033 669.1942749 158.2365033 669.1942749 157.5565033 669.1942749 C157.1543158 670.0605249 157.1543158 670.0605249 156.7440033 670.9442749 C155.5272114 673.24977533 154.2531645 675.21483683 152.5565033 677.1942749 C151.8965033 677.1942749 151.2365033 677.1942749 150.5565033 677.1942749 C150.34122986 677.71763428 150.12595642 678.24099365 149.90415955 678.7802124 C148.02261538 682.15063064 145.52270351 684.92714991 142.9940033 687.8192749 C142.19144104 688.74752075 142.19144104 688.74752075 141.37266541 689.69451904 C138.17043389 693.3859472 134.91294482 697.02174808 131.6190033 700.6317749 C129.07364236 703.42152738 126.75650471 706.20622778 124.6190033 709.3192749 C123.9383783 710.2680249 123.2577533 711.2167749 122.5565033 712.1942749 C121.8965033 712.1942749 121.2365033 712.1942749 120.5565033 712.1942749 C120.5565033 712.8542749 120.5565033 713.5142749 120.5565033 714.1942749 C119.8965033 714.1942749 119.2365033 714.1942749 118.5565033 714.1942749 C118.3090033 714.74599365 118.0615033 715.2977124 117.8065033 715.8661499 C116.31415856 718.64564198 114.51977806 720.9757456 112.5565033 723.4442749 C111.8552533 724.33630615 111.1540033 725.2283374 110.4315033 726.1473999 C109.8127533 726.82286865 109.1940033 727.4983374 108.5565033 728.1942749 C107.8965033 728.1942749 107.2365033 728.1942749 106.5565033 728.1942749 C106.31544861 728.75501709 106.07439392 729.31575928 105.82603455 729.89349365 C104.294721 732.66870497 102.41054024 734.69458841 100.2440033 737.0067749 C97.48292493 740.00312201 94.91102558 742.9498649 92.6190033 746.3192749 C91.5980658 747.7423999 91.5980658 747.7423999 90.5565033 749.1942749 C89.8965033 749.1942749 89.2365033 749.1942749 88.5565033 749.1942749 C88.5565033 749.8542749 88.5565033 750.5142749 88.5565033 751.1942749 C87.8965033 751.1942749 87.2365033 751.1942749 86.5565033 751.1942749 C86.18718689 752.02572021 86.18718689 752.02572021 85.81040955 752.8739624 C81.51779398 760.8173071 74.3902723 767.5968693 68.3065033 774.19818115 C66.50868351 776.07878165 66.50868351 776.07878165 65.5565033 778.1942749 C64.8965033 778.1942749 64.2365033 778.1942749 63.5565033 778.1942749 C63.5565033 778.8542749 63.5565033 779.5142749 63.5565033 780.1942749 C41.4465033 780.1942749 19.3365033 780.1942749 -3.4434967 780.1942749 C-1.19587995 774.57523303 -1.19587995 774.57523303 1.1658783 772.14349365 C1.92312195 771.34818237 1.92312195 771.34818237 2.69566345 770.5368042 C3.2272406 769.99064453 3.75881775 769.44448486 4.3065033 768.8817749 C7.82869307 765.18478793 11.1969548 761.53935489 14.1815033 757.3817749 C14.9652533 756.3298999 15.7490033 755.2780249 16.5565033 754.1942749 C17.2165033 754.1942749 17.8765033 754.1942749 18.5565033 754.1942749 C18.9258197 753.34542725 18.9258197 753.34542725 19.30259705 752.47943115 C20.77186553 749.80179232 22.53402765 747.86383878 24.6190033 745.6317749 C27.88668802 742.07130562 31.02129523 738.45494571 34.0565033 734.6942749 C37.81681657 730.0402252 41.75214375 725.58963031 45.8065033 721.19036865 C47.60432308 719.30976816 47.60432308 719.30976816 48.5565033 717.1942749 C49.2165033 717.1942749 49.8765033 717.1942749 50.5565033 717.1942749 C50.82962341 716.60275635 51.10274353 716.01123779 51.38414001 715.40179443 C52.52141579 713.26034346 53.70930561 711.68020094 55.3143158 709.8739624 C55.85403015 709.26044922 56.39374451 708.64693604 56.94981384 708.01483154 C57.52127136 707.37279785 58.09272888 706.73076416 58.6815033 706.0692749 C63.33451013 700.79063207 67.81155703 695.4601035 72.06822205 689.85443115 C72.55935486 689.30657959 73.05048767 688.75872803 73.5565033 688.1942749 C74.2165033 688.1942749 74.8765033 688.1942749 75.5565033 688.1942749 C75.9258197 687.34542725 75.9258197 687.34542725 76.30259705 686.47943115 C77.77186553 683.80179232 79.53402765 681.86383878 81.6190033 679.6317749 C84.88668802 676.07130562 88.02129523 672.45494571 91.0565033 668.6942749 C94.81681657 664.0402252 98.75214375 659.58963031 102.8065033 655.19036865 C104.60432308 653.30976816 104.60432308 653.30976816 105.5565033 651.1942749 C106.2165033 651.1942749 106.8765033 651.1942749 107.5565033 651.1942749 C107.9258197 650.34542725 107.9258197 650.34542725 108.30259705 649.47943115 C109.77186553 646.80179232 111.53402765 644.86383878 113.6190033 642.6317749 C116.88668802 639.07130562 120.02129523 635.45494571 123.0565033 631.6942749 C126.81681657 627.0402252 130.75214375 622.58963031 134.8065033 618.19036865 C136.60432308 616.30976816 136.60432308 616.30976816 137.5565033 614.1942749 C138.2165033 614.1942749 138.8765033 614.1942749 139.5565033 614.1942749 C139.8658783 613.5755249 140.1752533 612.9567749 140.4940033 612.3192749 C141.1815033 610.9442749 141.8690033 609.5692749 142.5565033 608.1942749 C143.2165033 608.1942749 143.8765033 608.1942749 144.5565033 608.1942749 C144.78853455 607.64255615 145.0205658 607.0908374 145.2596283 606.5223999 C146.90471465 603.56917259 148.9881328 601.4031527 151.3065033 598.9442749 C154.98375797 594.98538078 158.33464108 591.00447619 161.4002533 586.55755615 C161.7818158 586.10767334 162.1633783 585.65779053 162.5565033 585.1942749 C163.2165033 585.1942749 163.8765033 585.1942749 164.5565033 585.1942749 C164.8040033 584.64255615 165.0515033 584.0908374 165.3065033 583.5223999 C166.79884803 580.74290783 168.59322853 578.41280421 170.5565033 575.9442749 C171.2577533 575.05224365 171.9590033 574.1602124 172.6815033 573.2411499 C173.3002533 572.56568115 173.9190033 571.8902124 174.5565033 571.1942749 C175.2165033 571.1942749 175.8765033 571.1942749 176.5565033 571.1942749 C176.9896283 570.2970874 176.9896283 570.2970874 177.4315033 569.3817749 C178.5565033 567.1942749 178.5565033 567.1942749 180.5565033 564.1942749 C181.2165033 564.1942749 181.8765033 564.1942749 182.5565033 564.1942749 C182.91035095 563.36282959 182.91035095 563.36282959 183.27134705 562.5145874 C184.86914879 559.62980248 186.87501339 557.48255458 189.1190033 555.0692749 C192.19369516 551.87919981 192.19369516 551.87919981 194.5565033 548.1942749 C195.2165033 548.1942749 195.8765033 548.1942749 196.5565033 548.1942749 C196.8040033 547.64255615 197.0515033 547.0908374 197.3065033 546.5223999 C198.79884803 543.74290783 200.59322853 541.41280421 202.5565033 538.9442749 C203.2577533 538.05224365 203.9590033 537.1602124 204.6815033 536.2411499 C205.3002533 535.56568115 205.9190033 534.8902124 206.5565033 534.1942749 C207.2165033 534.1942749 207.8765033 534.1942749 208.5565033 534.1942749 C208.8143158 533.63224365 209.0721283 533.0702124 209.3377533 532.4911499 C210.69820106 529.92722911 212.28439291 527.74201125 214.0565033 525.4442749 C214.96915955 524.24544678 214.96915955 524.24544678 215.9002533 523.0223999 C216.4468158 522.41911865 216.9933783 521.8158374 217.5565033 521.1942749 C218.2165033 521.1942749 218.8765033 521.1942749 219.5565033 521.1942749 C219.5565033 520.5342749 219.5565033 519.8742749 219.5565033 519.1942749 C220.2165033 519.1942749 220.8765033 519.1942749 221.5565033 519.1942749 C221.8040033 518.64255615 222.0515033 518.0908374 222.3065033 517.5223999 C223.79884803 514.74290783 225.59322853 512.41280421 227.5565033 509.9442749 C228.2577533 509.05224365 228.9590033 508.1602124 229.6815033 507.2411499 C230.6096283 506.22794678 230.6096283 506.22794678 231.5565033 505.1942749 C232.2165033 505.1942749 232.8765033 505.1942749 233.5565033 505.1942749 C233.79755798 504.63353271 234.03861267 504.07279053 234.28697205 503.49505615 C235.81828559 500.71984483 237.70246635 498.69396139 239.8690033 496.3817749 C242.63008167 493.3854278 245.20198102 490.4386849 247.4940033 487.0692749 C248.1746283 486.1205249 248.8552533 485.1717749 249.5565033 484.1942749 C250.2165033 484.1942749 250.8765033 484.1942749 251.5565033 484.1942749 C251.5565033 483.5342749 251.5565033 482.8742749 251.5565033 482.1942749 C252.2165033 482.1942749 252.8765033 482.1942749 253.5565033 482.1942749 C253.8040033 481.64255615 254.0515033 481.0908374 254.3065033 480.5223999 C255.79884803 477.74290783 257.59322853 475.41280421 259.5565033 472.9442749 C260.2577533 472.05224365 260.9590033 471.1602124 261.6815033 470.2411499 C262.3002533 469.56568115 262.9190033 468.8902124 263.5565033 468.1942749 C264.2165033 468.1942749 264.8765033 468.1942749 265.5565033 468.1942749 C265.79755798 467.63353271 266.03861267 467.07279053 266.28697205 466.49505615 C267.81828559 463.71984483 269.70246635 461.69396139 271.8690033 459.3817749 C274.63008167 456.3854278 277.20198102 453.4386849 279.4940033 450.0692749 C280.1746283 449.1205249 280.8552533 448.1717749 281.5565033 447.1942749 C282.2165033 447.1942749 282.8765033 447.1942749 283.5565033 447.1942749 C283.5565033 446.5342749 283.5565033 445.8742749 283.5565033 445.1942749 C284.2165033 445.1942749 284.8765033 445.1942749 285.5565033 445.1942749 C286.76278337 442.86213342 287.72197709 440.69785352 288.5565033 438.1942749 C287.504928 435.92831515 287.504928 435.92831515 285.8065033 433.5067749 C285.15037048 432.51806396 284.49423767 431.52935303 283.81822205 430.51068115 C283.06553876 429.40437936 282.31158673 428.29893992 281.5565033 427.1942749 C281.1744574 426.63079346 280.7924115 426.06731201 280.39878845 425.48675537 C275.86982451 418.81239555 271.25697023 412.19634546 266.6424408 405.58099365 C253.88008279 387.28410141 253.88008279 387.28410141 248.5565033 379.3817749 C247.93376526 378.46706421 247.93376526 378.46706421 247.29844666 377.53387451 C244.5565033 373.43024912 244.5565033 373.43024912 244.5565033 371.1942749 C243.8965033 371.1942749 243.2365033 371.1942749 242.5565033 371.1942749 C241.07243339 369.09662823 239.70931302 367.00644977 238.3690033 364.8192749 C237.55153599 363.51622223 236.73251676 362.2141419 235.91197205 360.9130249 C235.50897888 360.27236084 235.10598572 359.63169678 234.69078064 358.97161865 C232.72287826 355.88803507 230.60462463 352.91633527 228.49009705 349.93255615 C224.11224213 343.73280606 219.83441679 337.46323084 215.5565033 331.1942749 C214.82802185 330.12813965 214.82802185 330.12813965 214.08482361 329.04046631 C212.67395237 326.970464 211.27028305 324.8957788 209.8690033 322.8192749 C209.43483093 322.18288086 209.00065857 321.54648682 208.55332947 320.89080811 C205.5565033 316.42462564 205.5565033 316.42462564 205.5565033 314.1942749 C204.8965033 314.1942749 204.2365033 314.1942749 203.5565033 314.1942749 C201.94793301 311.99579415 200.4595366 309.79837142 198.9940033 307.5067749 C198.09009322 306.12068088 197.18512569 304.73527593 196.27915955 303.3505249 C195.82299255 302.65056396 195.36682556 301.95060303 194.89683533 301.22943115 C192.95817259 298.28577131 190.94859275 295.39735179 188.9315033 292.5067749 C186.13801237 288.49235262 183.38423351 284.45784364 180.6815033 280.3817749 C173.80308116 270.02368039 166.69617645 259.82282946 159.58189392 249.62591553 C148.77832312 234.13304926 148.77832312 234.13304926 143.5565033 226.3817749 C142.93376526 225.46706421 142.93376526 225.46706421 142.29844666 224.53387451 C139.5565033 220.43024912 139.5565033 220.43024912 139.5565033 218.1942749 C138.8965033 218.1942749 138.2365033 218.1942749 137.5565033 218.1942749 C135.93033554 215.78524943 134.41477866 213.37719409 132.9315033 210.8817749 C129.4513765 205.05731831 125.694411 199.5475885 121.67076111 194.08319092 C118.11183326 189.22028177 114.68255381 184.26767054 111.2440033 179.3192749 C110.54210876 178.31380615 109.84021423 177.3083374 109.11705017 176.2723999 C108.10288025 174.81447021 108.10288025 174.81447021 107.06822205 173.3270874 C106.16269592 172.02602051 106.16269592 172.02602051 105.23887634 170.69866943 C100.5565033 163.72844991 100.5565033 163.72844991 100.5565033 161.1942749 C99.8965033 161.1942749 99.2365033 161.1942749 98.5565033 161.1942749 C97.07603455 159.1395874 97.07603455 159.1395874 95.3690033 156.3192749 C93.13588084 152.71157195 90.88438575 149.15644814 88.4315033 145.6942749 C82.70393122 137.59844831 77.1354224 129.39288931 71.5565033 121.1942749 C71.03958923 120.43662842 70.52267517 119.67898193 69.99009705 118.89837646 C68.56953643 116.81297122 67.15559386 114.72325882 65.7440033 112.6317749 C65.31756531 112.00698242 64.89112732 111.38218994 64.45176697 110.73846436 C61.5565033 106.42439405 61.5565033 106.42439405 61.5565033 104.1942749 C60.8965033 104.1942749 60.2365033 104.1942749 59.5565033 104.1942749 C57.94793301 101.99579415 56.4595366 99.79837142 54.9940033 97.5067749 C54.09009322 96.12068088 53.18512569 94.73527593 52.27915955 93.3505249 C51.82299255 92.65056396 51.36682556 91.95060303 50.89683533 91.22943115 C48.95817259 88.28577131 46.94859275 85.39735179 44.9315033 82.5067749 C42.13801237 78.49235262 39.38423351 74.45784364 36.6815033 70.3817749 C30.04106641 60.38190439 23.19905605 50.5218355 16.29820251 40.70037842 C11.41818594 33.75279325 6.55054977 26.79818044 1.8065033 19.7567749 C1.19730042 18.86236694 1.19730042 18.86236694 0.57579041 17.94989014 C-1.52607454 14.80413986 -3.18820482 11.7665151 -4.4434967 8.1942749 C-5.1034967 8.1942749 -5.7634967 8.1942749 -6.4434967 8.1942749 C-8.4234967 4.7292749 -8.4234967 4.7292749 -10.4434967 1.1942749 C-8.26031394 -0.98890787 -3.03794394 0.01463807 0 0 Z M70.5565033 42.1942749 C72.23637893 46.6748972 74.59000001 50.25022821 77.4315033 54.0692749 C80.81310502 58.63493895 83.81674022 63.21172903 86.5565033 68.1942749 C87.2165033 68.1942749 87.8765033 68.1942749 88.5565033 68.1942749 C88.78724548 68.87232178 89.01798767 69.55036865 89.25572205 70.2489624 C90.87637243 73.91854316 93.06525487 77.05816668 95.3690033 80.3192749 C96.36412975 81.7474271 97.35890658 83.17582296 98.3533783 84.60443115 C98.87609314 85.35224854 99.39880798 86.10006592 99.93736267 86.87054443 C102.68724705 90.81707633 105.40344255 94.78657924 108.1190033 98.7567749 C108.66113464 99.54898438 109.20326599 100.34119385 109.76182556 101.15740967 C113.30297545 106.33972282 116.81998774 111.53754354 120.3065033 116.7567749 C120.93407532 117.69468872 120.93407532 117.69468872 121.57432556 118.65155029 C124.43270458 122.94667747 124.43270458 122.94667747 125.5565033 125.1942749 C126.2165033 125.1942749 126.8765033 125.1942749 127.5565033 125.1942749 C127.90068298 126.217146 127.90068298 126.217146 128.2518158 127.26068115 C129.88176357 130.92562361 132.05705463 133.91623145 134.4315033 137.1317749 C135.30481579 138.32772065 136.1772212 139.52432934 137.0486908 140.72161865 C137.47464539 141.30677246 137.90059998 141.89192627 138.33946228 142.49481201 C140.14602057 145.01747044 141.85189862 147.60192561 143.5565033 150.1942749 C144.30980233 151.33139614 145.06373754 152.46809613 145.81822205 153.60443115 C146.20961365 154.19417725 146.60100525 154.78392334 147.0042572 155.39154053 C152.66525449 163.90867705 158.45711326 172.32906378 164.31578064 180.71136475 C171.45324188 190.92441965 178.58194806 201.13922301 185.4940033 211.5067749 C185.99585144 212.25918457 186.49769958 213.01159424 187.01475525 213.7868042 C190.42036663 218.92200156 190.42036663 218.92200156 191.5565033 221.1942749 C192.2165033 221.1942749 192.8765033 221.1942749 193.5565033 221.1942749 C193.81044861 221.90712646 194.06439392 222.61997803 194.32603455 223.35443115 C195.66494985 226.44456267 197.28968105 228.88827872 199.2440033 231.6317749 C200.05229618 232.77820506 200.85950301 233.92540138 201.6658783 235.07318115 C202.11898376 235.71658447 202.57208923 236.35998779 203.03892517 237.02288818 C206.06064872 241.3464418 209.02418018 245.70998686 211.9940033 250.0692749 C212.63764832 251.01375488 213.28129333 251.95823486 213.94444275 252.93133545 C217.7947554 258.58811204 221.63040547 264.25429665 225.4315033 269.9442749 C226.04723206 270.86442383 226.04723206 270.86442383 226.67539978 271.80316162 C229.43256864 275.94640558 229.43256864 275.94640558 230.5565033 278.1942749 C231.2165033 278.1942749 231.8765033 278.1942749 232.5565033 278.1942749 C232.8246283 278.9161499 233.0927533 279.6380249 233.3690033 280.3817749 C234.55551691 283.19193873 235.83135968 285.67844047 237.5565033 288.1942749 C238.2165033 288.1942749 238.8765033 288.1942749 239.5565033 288.1942749 C239.9586908 289.29642334 239.9586908 289.29642334 240.3690033 290.4208374 C241.52897248 293.12997596 242.82401785 295.19543667 244.5565033 297.5692749 C247.60557075 301.82658278 250.54198352 306.14080946 253.4315033 310.5067749 C258.05138885 317.4651424 262.77903879 324.34311963 267.5565033 331.1942749 C269.60306742 334.13207616 271.64912488 337.0702289 273.69468689 340.00872803 C275.12009404 342.05609029 276.54617689 344.10298233 277.9730072 346.14935303 C282.03574794 351.98232321 286.0774399 357.81355471 289.8455658 363.8427124 C290.22970642 364.45501709 290.61384705 365.06732178 291.0096283 365.69818115 C291.80362874 366.96593519 292.59254646 368.23688423 293.3768158 369.51068115 C294.38394127 371.10643063 295.46450595 372.65535973 296.5565033 374.1942749 C297.2165033 374.1942749 297.8765033 374.1942749 298.5565033 374.1942749 C298.95095642 375.27515381 298.95095642 375.27515381 299.3533783 376.37786865 C303.47648404 386.02968438 311.03822136 394.76770063 317.05601501 403.33709717 C325.46565857 415.31966282 333.72503779 427.40210226 341.81822205 439.6005249 C343.98379549 442.83185247 346.21832058 446.01076048 348.45884705 449.19036865 C351.84309927 454.03671868 355.16984344 458.92234191 358.5030365 463.80389404 C361.19125237 467.74000355 363.88335086 471.6730899 366.5955658 475.5927124 C367.54091608 476.95987378 368.4862298 478.32706043 369.4315033 479.6942749 C369.88098328 480.343479 370.33046326 480.99268311 370.79356384 481.66156006 C374.09997908 486.46295918 377.21131142 491.35385809 380.21665955 496.3505249 C380.65880798 496.9589624 381.10095642 497.5673999 381.5565033 498.1942749 C382.2165033 498.1942749 382.8765033 498.1942749 383.5565033 498.1942749 C383.82205017 498.92517334 384.08759705 499.65607178 384.3611908 500.40911865 C385.55124266 503.18201728 386.91012253 505.32215622 388.6815033 507.7567749 C391.18783507 511.25849303 393.62837972 514.78350932 395.9940033 518.3817749 C399.9462301 524.34063423 404.02727409 530.20553316 408.1190033 536.0692749 C415.41740946 546.53072107 422.62063502 557.05392211 429.79234314 567.60247803 C432.53941807 571.63831354 435.29772155 575.66643664 438.0565033 579.6942749 C441.42432579 584.61131639 444.78768086 589.53127385 448.13853455 594.4598999 C454.66340461 604.0541844 461.22810779 613.6173396 467.8690033 623.1317749 C472.46609235 629.72034466 477.03734088 636.32219417 481.4940033 643.0067749 C482.10465637 643.92221069 482.10465637 643.92221069 482.72764587 644.85614014 C484.10295387 646.93260935 485.4415227 648.9643137 486.5565033 651.1942749 C487.2165033 651.1942749 487.8765033 651.1942749 488.5565033 651.1942749 C488.8143158 651.89939209 489.0721283 652.60450928 489.3377533 653.33099365 C490.65980516 656.43696806 492.25398183 659.15405555 494.0565033 662.0067749 C494.6649408 662.98259521 495.2733783 663.95841553 495.9002533 664.96380615 C496.4468158 665.69986084 496.9933783 666.43591553 497.5565033 667.1942749 C498.2165033 667.1942749 498.8765033 667.1942749 499.5565033 667.1942749 C499.7627533 667.83622803 499.9690033 668.47818115 500.1815033 669.1395874 C502.13365304 673.47646552 504.83452818 677.18201742 507.5565033 681.0692749 C508.72909851 682.76278686 509.90096411 684.45680424 511.0721283 686.15130615 C511.65671814 686.99515869 512.24130798 687.83901123 512.84361267 688.70843506 C515.3655781 692.36844817 517.842294 696.05771072 520.3065033 699.7567749 C520.93298767 700.69335938 520.93298767 700.69335938 521.5721283 701.64886475 C524.43088042 705.94302914 524.43088042 705.94302914 525.5565033 708.1942749 C526.2165033 708.1942749 526.8765033 708.1942749 527.5565033 708.1942749 C527.77822205 708.85943115 527.9999408 709.5245874 528.2283783 710.2098999 C529.97493026 714.13450491 532.33421983 717.44463504 534.8065033 720.9442749 C535.74990976 722.29274508 536.69261347 723.64170718 537.6346283 724.9911499 C538.09837797 725.62964654 538.56212765 726.26814318 539.03993034 726.9259882 C540.5565033 729.1942749 540.5565033 729.1942749 541.66244698 731.53756618 C543.04498041 734.24646815 544.31141737 736.12772635 546.5565033 738.1942749 C551.1857001 739.51208535 555.77749015 739.33456379 560.54820251 739.21600342 C561.97763915 739.2134628 563.40708752 739.21489359 564.83651733 739.21998596 C568.70690867 739.22256368 572.574779 739.16973744 576.44458532 739.10682034 C580.49235008 739.05047539 584.54017569 739.04526545 588.58827209 739.03459167 C596.24910224 739.00664204 603.90877352 738.93282138 611.56909382 738.84244627 C620.29199841 738.74177376 629.01495898 738.69234687 637.73830009 738.64718735 C655.67835767 738.5531679 673.61733725 738.39491351 691.5565033 738.1942749 C690.93056778 737.09051514 690.30463226 735.98675537 689.659729 734.84954834 C689.30764028 734.22868347 688.95555155 733.6078186 688.59279346 732.96813965 C687.2712366 730.705971 685.80919755 728.57589595 684.28697205 726.4442749 C683.68159607 725.59091553 683.07622009 724.73755615 682.45249939 723.8583374 C681.82682068 722.97919678 681.20114197 722.10005615 680.5565033 721.1942749 C679.30070505 719.40393385 678.04682742 717.61224422 676.79478455 715.8192749 C676.15613464 714.90492676 675.51748474 713.99057861 674.85948181 713.04852295 C669.04187542 704.70636223 663.26083506 696.34408796 657.6190033 687.8817749 C657.11731628 687.12960693 656.61562927 686.37743896 656.09873962 685.60247803 C652.69265139 680.46657109 652.69265139 680.46657109 651.5565033 678.1942749 C650.8965033 678.1942749 650.2365033 678.1942749 649.5565033 678.1942749 C649.2986908 677.48915771 649.0408783 676.78404053 648.7752533 676.05755615 C647.45320143 672.95158175 645.85902476 670.23449425 644.0565033 667.3817749 C643.4480658 666.40595459 642.8396283 665.43013428 642.2127533 664.42474365 C641.6661908 663.68868896 641.1196283 662.95263428 640.5565033 662.1942749 C639.8965033 662.1942749 639.2365033 662.1942749 638.5565033 662.1942749 C638.2451947 661.22941162 638.2451947 661.22941162 637.92759705 660.24505615 C635.990177 655.93415855 633.32021594 652.24753105 630.6190033 648.3817749 C630.04069763 647.54517334 629.46239197 646.70857178 628.86656189 645.84661865 C627.10072843 643.29290716 625.32895727 640.74339415 623.5565033 638.1942749 C621.59472944 635.3633068 619.6370042 632.52957877 617.6815033 629.6942749 C617.23242615 629.04547363 616.783349 628.39667236 616.32066345 627.72821045 C613.01327617 622.92678803 609.90198079 618.03516658 606.89634705 613.0380249 C606.45419861 612.4295874 606.01205017 611.8211499 605.5565033 611.1942749 C604.8965033 611.1942749 604.2365033 611.1942749 603.5565033 611.1942749 C603.2986908 610.48915771 603.0408783 609.78404053 602.7752533 609.05755615 C601.45320143 605.95158175 599.85902476 603.23449425 598.0565033 600.3817749 C597.4480658 599.40595459 596.8396283 598.43013428 596.2127533 597.42474365 C595.6661908 596.68868896 595.1196283 595.95263428 594.5565033 595.1942749 C593.8965033 595.1942749 593.2365033 595.1942749 592.5565033 595.1942749 C592.2451947 594.22941162 592.2451947 594.22941162 591.92759705 593.24505615 C589.99018242 588.93417062 587.32026256 585.24748386 584.6190033 581.3817749 C583.74828186 580.12252197 583.74828186 580.12252197 582.85997009 578.83782959 C581.66769187 577.11396753 580.47343447 575.39147266 579.27720642 573.67034912 C576.79749711 570.10207275 574.33199814 566.52410054 571.8690033 562.9442749 C571.42403503 562.29853516 570.97906677 561.65279541 570.52061462 560.98748779 C566.97770014 555.83539438 563.50808579 550.63662831 560.05064392 545.42694092 C557.19540996 541.13205949 554.28316908 536.88281949 551.3065033 532.6708374 C545.89990054 525.01952903 540.57326991 517.31744572 535.3065033 509.5692749 C530.90364334 503.10135674 526.49560909 496.63737762 522.0565033 490.1942749 C516.99124243 482.84234468 511.96413262 475.46460156 506.94517517 468.08099365 C504.00862618 463.76645241 501.05525666 459.46586231 498.0565033 455.1942749 C494.4235951 450.01936286 490.86073761 444.79842347 487.3065033 439.5692749 C482.30514223 432.21794397 477.28145171 424.88325524 472.21788025 417.574646 C468.94448747 412.82501725 465.87007283 407.98211667 462.89634705 403.0380249 C462.45419861 402.4295874 462.01205017 401.8211499 461.5565033 401.1942749 C460.8965033 401.1942749 460.2365033 401.1942749 459.5565033 401.1942749 C459.30255798 400.48142334 459.04861267 399.76857178 458.78697205 399.03411865 C457.44805674 395.94398713 455.82332554 393.50027108 453.8690033 390.7567749 C453.05936305 389.60907494 452.25085752 388.46057401 451.44322205 387.3114624 C450.98995544 386.66789795 450.53668884 386.0243335 450.06968689 385.36126709 C447.06748991 381.06189626 444.13010037 376.71799075 441.1815033 372.3817749 C436.73531072 365.85255188 432.28409522 359.32701337 427.8065033 352.8192749 C427.37055847 352.18562012 426.93461365 351.55196533 426.48545837 350.89910889 C424.23107883 347.62379883 421.97429248 344.35015552 419.71665955 341.0770874 C414.87502544 334.0527494 410.08222783 327.00240906 405.36509705 319.89349365 C403.17883535 316.63062792 400.92460961 313.4200493 398.66197205 310.2098999 C395.80648544 306.12003782 392.99494821 302.00062931 390.1815033 297.8817749 C383.67574506 288.36157808 377.13147859 278.87012287 370.5174408 269.42474365 C369.79467957 268.39059326 369.07191833 267.35644287 368.32725525 266.29095459 C366.87491858 264.21320594 365.42038933 262.13698786 363.96348572 260.06243896 C363.29422058 259.10434326 362.62495544 258.14624756 361.93540955 257.15911865 C361.33285339 256.2992334 360.73029724 255.43934814 360.10948181 254.55340576 C358.74529133 252.48106295 357.60453639 250.439226 356.5565033 248.1942749 C355.8965033 248.1942749 355.2365033 248.1942749 354.5565033 248.1942749 C354.2986908 247.48915771 354.0408783 246.78404053 353.7752533 246.05755615 C352.45320143 242.95158175 350.85902476 240.23449425 349.0565033 237.3817749 C348.4480658 236.40595459 347.8396283 235.43013428 347.2127533 234.42474365 C346.39290955 233.32066162 346.39290955 233.32066162 345.5565033 232.1942749 C344.8965033 232.1942749 344.2365033 232.1942749 343.5565033 232.1942749 C343.15927063 231.10554077 343.15927063 231.10554077 342.75401306 229.99481201 C341.54748539 227.17318531 340.14574359 224.90180559 338.39634705 222.38568115 C337.45891663 221.02660645 337.45891663 221.02660645 336.50254822 219.64007568 C335.83972839 218.68858643 335.17690857 217.73709717 334.4940033 216.7567749 C329.20452617 209.10496403 324.06468844 201.4075894 319.19322205 193.4833374 C318.65310486 192.72794678 318.11298767 191.97255615 317.5565033 191.1942749 C316.8965033 191.1942749 316.2365033 191.1942749 315.5565033 191.1942749 C315.2986908 190.48915771 315.0408783 189.78404053 314.7752533 189.05755615 C313.45320143 185.95158175 311.85902476 183.23449425 310.0565033 180.3817749 C309.4480658 179.40595459 308.8396283 178.43013428 308.2127533 177.42474365 C307.39290955 176.32066162 307.39290955 176.32066162 306.5565033 175.1942749 C305.8965033 175.1942749 305.2365033 175.1942749 304.5565033 175.1942749 C304.34896423 174.55103271 304.14142517 173.90779053 303.92759705 173.24505615 C301.9901947 168.93419795 299.32035513 165.2473954 296.6190033 161.3817749 C296.03924744 160.54372314 295.45949158 159.70567139 294.86216736 158.84222412 C293.6705157 157.11989981 292.47698935 155.39887109 291.28160095 153.67913818 C288.77537798 150.06912724 286.2918099 146.44369893 283.8065033 142.8192749 C281.27916394 139.13914591 278.74775837 135.46224422 276.1893158 131.8036499 C273.07319874 127.33973135 269.97071923 122.88271211 267.06822205 118.27630615 C266.6584613 117.62677979 266.24870056 116.97725342 265.82652283 116.30804443 C265.03557929 115.04630879 264.25113113 113.78047255 263.47398376 112.51019287 C262.55315039 111.0379522 261.56099533 109.61075732 260.5565033 108.1942749 C259.8965033 108.1942749 259.2365033 108.1942749 258.5565033 108.1942749 C258.2883783 107.45950928 258.0202533 106.72474365 257.7440033 105.9677124 C256.58403411 103.25857385 255.28898874 101.19311314 253.5565033 98.8192749 C250.50743584 94.56196703 247.57102308 90.24774034 244.6815033 85.8817749 C239.10625917 77.46895082 239.10625917 77.46895082 233.25596619 69.2467804 C231.07420377 66.15159463 229.41430833 62.95367876 227.74278259 59.55839539 C223.74243282 52.02267787 219.52804606 44.11878064 211.21873474 40.90221024 C202.17414288 39.08384122 193.02487454 39.47148783 183.85641098 39.86221433 C179.86421824 40.00748821 175.87148763 40.01961548 171.87705994 40.04679871 C164.33733336 40.11787594 156.80541435 40.30596605 149.26910496 40.53783697 C140.67992363 40.79627728 132.09033846 40.92170149 123.49822807 41.03683197 C105.84658321 41.27629281 88.20217369 41.67995562 70.5565033 42.1942749 Z " fill="#000000" transform="translate(130.44349670410156,121.80572509765625)"/>
</svg>
